<svg width="96" height="96" fill="none" xmlns="http://www.w3.org/2000/svg"><circle cx="48" cy="48" r="48" fill="#000"/><path d="M30.434 34.91c9.701-9.646 25.43-9.646 35.132 0l8.38 8.333-8.38 8.333c-9.702 9.646-25.43 9.646-35.132 0l-8.38-8.333 8.38-8.332z" fill="#000"/><path fill-rule="evenodd" clip-rule="evenodd" d="M16 43.257l19.027-19.04h25.946L80 43.257 48 75.244 16 43.257zm46.703-6.932c-8.085-8.12-21.321-8.12-29.406 0l-6.919 6.919 6.92 6.919c8.084 8.12 21.32 8.12 29.405 0l6.918-6.92-6.918-6.919z" fill="#0CE466"/><path d="M48 49.297a6.054 6.054 0 110-12.107 6.054 6.054 0 010 12.108z" fill="#000"/><path fill-rule="evenodd" clip-rule="evenodd" d="M38.054 43.243c0 5.495 4.455 9.946 9.946 9.946 5.49 0 9.946-4.451 9.946-9.946S53.49 33.297 48 33.297c-5.49 0-9.946 4.45-9.946 9.946zm5.622 0a4.324 4.324 0 108.648 0 4.324 4.324 0 00-8.648 0z" fill="#fff"/></svg>