<svg version="1.1" id="Layer_1" xmlns="http://www.w3.org/2000/svg" x="0" y="0" viewBox="0 0 1400 1400" xml:space="preserve"><style>.st2{fill:#fff}</style><path stroke="#fff" stroke-miterlimit="10" d="M0 0h1400v1400H0z"/><linearGradient id="SVGID_1_" gradientUnits="userSpaceOnUse" x1="877.288" y1="987.499" x2="535.877" y2="646.087" gradientTransform="matrix(1 0 0 -1 0 1397.89)"><stop offset=".09" stop-color="#ff6d41"/><stop offset=".5" stop-color="#fa297f"/><stop offset="1" stop-color="#fa297f"/></linearGradient><path fill="url(#SVGID_1_)" d="M700 219.8L332.2 587.7 700 940.1l367.8-352.4z"/><path class="st2" d="M514.9 900.7c8.1-10.8 15.8-21.1 25-31.1-110.6 26.6-186.7 82.4-186.7 147 0 2.4.1 4.8.3 7.2 10.8-4.1 22.3-9 34.4-15 73.1-36 101.7-74.3 127-108.1zM630 1019.4c22.1-29.6 41.2-55.1 95.2-81.6 54-26.5 85.9-26 122.8-25.4 24.7.4 51.4.8 84-6.2-39.7-21.3-90.7-37.4-148.4-46.1l-83.6 80-58.4-56c-41.6 28-62.9 56.5-82.3 82.4-22.1 29.6-41.2 55.1-95.2 81.6-37.9 18.6-64.8 23.9-90.3 25.2 20.1 26.7 54 50.1 97.3 68.1 10.1-3.9 20.7-8.6 31.9-14.1 73.1-35.8 101.7-74.1 127-107.9zM964.5 942.7c-42.2-.7-90-1.4-163.1 34.5s-101.7 74.2-126.9 108c-22.1 29.6-41.2 55.1-95.2 81.6-2.4 1.2-4.8 2.3-7.2 3.4 37.7 6.6 75.8 9.9 114.1 9.9 8.4 0 16.8-.2 25-.5 13.5-14.3 24-28.3 34-41.6 22.1-29.6 41.2-55.1 95.2-81.6 54-26.5 85.9-26 122.8-25.4 17 .3 34.9.5 55-1.6.7-4.3 1-8.6 1-12.9 0-26.5-12.8-51.5-35.6-73.6-6.4 0-12.7-.1-19.1-.2zM819.6 1166.4c87.2-18.8 154.9-55.4 184-100.5-24.9 4.6-53.3 13.3-87.1 29.9-47.1 23.2-75.7 47.4-96.9 70.6z"/><linearGradient id="SVGID_2_" gradientUnits="userSpaceOnUse" x1="782.717" y1="1076.843" x2="439.899" y2="734.032" gradientTransform="matrix(1 0 0 -1 0 1397.89)"><stop offset="0" stop-color="#652cb4"/><stop offset=".07" stop-color="#652cb4" stop-opacity=".82"/><stop offset=".19" stop-color="#652cb4" stop-opacity=".53"/><stop offset=".3" stop-color="#652cb4" stop-opacity=".3"/><stop offset=".4" stop-color="#652cb4" stop-opacity=".14"/><stop offset=".49" stop-color="#652cb4" stop-opacity=".04"/><stop offset=".55" stop-color="#652cb4" stop-opacity="0"/></linearGradient><path opacity=".5" fill="url(#SVGID_2_)" d="M700 587.7H332.2L700 219.8z"/></svg>