<svg width="40" height="40" fill="none" xmlns="http://www.w3.org/2000/svg"><path d="M35.88 7.84A16.945 16.945 0 0 0 24 3C14.611 3 7 10.611 7 20s7.611 17 17 17c4.623 0 8.815-1.846 11.88-4.84C32.224 36.927 26.471 40 20 40 8.954 40 0 31.046 0 20S8.954 0 20 0c6.471 0 12.224 3.073 15.88 7.84Z" fill="url(#a)"/><path d="M11.296 29.728A13.555 13.555 0 0 0 20.8 33.6c7.511 0 13.6-6.089 13.6-13.6 0-7.511-6.089-13.6-13.6-13.6a13.556 13.556 0 0 0-9.504 3.872A15.974 15.974 0 0 1 24 4c8.837 0 16 7.163 16 16s-7.163 16-16 16c-5.177 0-9.78-2.459-12.704-6.272Z" fill="url(#b)"/><path fill-rule="evenodd" clip-rule="evenodd" d="M32 20c0 6.627-5.373 12-12 12S8 26.627 8 20 13.373 8 20 8s12 5.373 12 12Zm-4 0a8 8 0 1 1-16 0 8 8 0 0 1 16 0Z" fill="url(#c)"/><defs><linearGradient id="a" x1="0" y1="19.31" x2="40" y2="19.31" gradientUnits="userSpaceOnUse"><stop stop-color="#00E0FF"/><stop offset="1" stop-color="#562EC8"/></linearGradient><linearGradient id="b" x1="0" y1="19.31" x2="40" y2="19.31" gradientUnits="userSpaceOnUse"><stop stop-color="#00E0FF"/><stop offset="1" stop-color="#562EC8"/></linearGradient><linearGradient id="c" x1="0" y1="19.31" x2="40" y2="19.31" gradientUnits="userSpaceOnUse"><stop stop-color="#00E0FF"/><stop offset="1" stop-color="#562EC8"/></linearGradient></defs></svg>