<?xml version="1.0" encoding="UTF-8"?><svg xmlns="http://www.w3.org/2000/svg" xmlns:xlink="http://www.w3.org/1999/xlink" contentScriptType="text/ecmascript" width="375" zoomAndPan="magnify" contentStyleType="text/css" viewBox="0 0 375 374.999991" height="374.999991" preserveAspectRatio="xMidYMid meet" version="1.0"><defs><clipPath id="clip-0"><path d="M 167.25 113.644531 L 327.730469 113.644531 L 327.730469 261.140625 L 167.25 261.140625 Z M 167.25 113.644531 " clip-rule="nonzero"/></clipPath><clipPath id="clip-1"><path d="M 47.066406 113.644531 L 156.371094 113.644531 L 156.371094 261 L 47.066406 261 Z M 47.066406 113.644531 " clip-rule="nonzero"/></clipPath></defs><rect x="-37.5" width="450" fill="rgb(100%, 100%, 100%)" y="-37.499999" height="449.999989" fill-opacity="1"/><rect x="-37.5" width="450" fill="rgb(10.198975%, 12.548828%, 17.248535%)" y="-37.499999" height="449.999989" fill-opacity="1"/><g clip-path="url(#clip-0)"><path fill="rgb(100%, 100%, 100%)" d="M 245.113281 123.207031 C 250.117188 123.207031 254.488281 121.535156 256.917969 119.039062 L 290.203125 119.039062 C 310.914062 119.039062 327.859375 135.980469 327.859375 156.6875 C 327.859375 157.832031 326.285156 158.121094 325.820312 157.078125 C 320.097656 144.289062 307.242188 135.324219 292.390625 135.324219 L 282.792969 135.324219 C 279.742188 135.324219 277.222656 137.714844 277.070312 140.765625 L 276.386719 154.21875 L 273.089844 154.21875 L 273.089844 253.671875 C 273.089844 257.800781 269.742188 261.148438 265.613281 261.148438 L 265.113281 261.148438 C 260.984375 261.148438 257.636719 257.800781 257.636719 253.671875 L 257.636719 154.21875 L 255.128906 154.21875 L 254.347656 138.792969 C 254.214844 136.175781 252.382812 133.921875 249.824219 133.335938 C 248.355469 132.996094 246.769531 132.8125 245.109375 132.8125 C 241.3125 132.8125 237.878906 133.769531 235.378906 135.324219 L 227.335938 135.324219 L 227.335938 119.039062 L 233.304688 119.039062 C 235.734375 121.535156 240.105469 123.207031 245.113281 123.207031 Z M 265.367188 252.429688 C 267.074219 252.429688 268.464844 251.042969 268.464844 249.332031 C 268.464844 247.621094 267.074219 246.234375 265.367188 246.234375 C 263.65625 246.234375 262.265625 247.621094 262.265625 249.332031 C 262.265625 251.042969 263.65625 252.429688 265.367188 252.429688 Z M 168.480469 128.765625 C 171.308594 120.359375 178.621094 114.75 186.855469 113.644531 L 180.550781 132.402344 C 179.792969 134.667969 181.007812 137.117188 183.273438 137.878906 L 193.871094 141.4375 C 196.136719 142.199219 198.585938 140.980469 199.347656 138.71875 L 205.652344 119.960938 C 211.546875 125.8125 213.988281 134.703125 211.160156 143.109375 C 209.171875 149.027344 204.953125 153.570312 199.757812 156.128906 C 194.6875 158.621094 191.472656 163.769531 191.644531 169.414062 L 194.511719 251.253906 C 194.671875 256.421875 190.714844 261.015625 185.546875 261.136719 C 180.242188 261.265625 175.945312 256.917969 176.109375 251.644531 L 179.171875 163.386719 C 179.300781 159.277344 177.65625 155.296875 174.621094 152.519531 C 168.265625 146.695312 165.554688 137.472656 168.480469 128.765625 Z M 185.320312 249.992188 C 187.257812 249.992188 188.828125 248.417969 188.828125 246.480469 C 188.828125 244.539062 187.257812 242.972656 185.320312 242.972656 C 183.378906 242.972656 181.808594 244.542969 181.808594 246.480469 C 181.808594 248.421875 183.382812 249.992188 185.320312 249.992188 Z M 185.320312 249.992188 " fill-opacity="1" fill-rule="nonzero"/></g><g clip-path="url(#clip-1)"><path fill="rgb(100%, 100%, 100%)" d="M 74.976562 185.058594 C 75.835938 188.382812 80.230469 190.171875 80.230469 194.460938 C 80.230469 197.351562 77.875 199.703125 74.976562 199.707031 L 74.945312 199.707031 C 72.042969 199.703125 69.691406 197.351562 69.691406 194.460938 C 69.691406 190.171875 74.082031 188.375 74.945312 185.058594 C 74.945312 185.042969 74.953125 185.035156 74.953125 185.027344 C 74.96875 185.035156 74.96875 185.050781 74.976562 185.058594 Z M 156.371094 136.183594 L 156.371094 149.511719 C 156.371094 153.078125 154.660156 156.488281 151.800781 158.632812 L 101.90625 190.398438 C 99.804688 191.96875 98.546875 194.46875 98.546875 197.085938 L 98.546875 206.875 L 100.859375 206.875 C 102.863281 206.875 104.480469 208.488281 104.480469 210.480469 L 104.480469 257.269531 C 104.480469 259.257812 102.863281 260.875 100.859375 260.875 L 91.589844 260.875 C 89.585938 260.875 87.964844 259.257812 87.964844 257.269531 L 87.964844 210.480469 C 87.964844 208.488281 89.585938 206.875 91.589844 206.875 L 93.601562 206.875 L 93.601562 197.085938 C 93.601562 192.925781 95.597656 188.949219 98.933594 186.449219 L 148.824219 154.683594 C 150.453125 153.46875 151.421875 151.535156 151.421875 149.511719 L 151.421875 136.183594 C 151.421875 133.867188 149.53125 131.984375 147.207031 131.984375 L 143.421875 131.984375 L 143.421875 137.402344 C 143.421875 138.164062 143.222656 138.882812 142.878906 139.519531 C 142.785156 139.699219 142.679688 139.867188 142.566406 140.03125 C 142.324219 140.378906 142.039062 140.699219 141.710938 140.960938 C 141.289062 141.296875 140.804688 141.566406 140.285156 141.734375 C 140.019531 141.820312 139.742188 141.886719 139.464844 141.925781 L 137.039062 142.261719 L 137.039062 142.824219 C 137.039062 142.824219 137.039062 142.828125 137.039062 142.828125 C 137.039062 143.007812 137.023438 143.183594 137.003906 143.355469 C 136.996094 143.40625 136.988281 143.449219 136.980469 143.488281 C 136.960938 143.625 136.9375 143.761719 136.910156 143.886719 C 136.902344 143.921875 136.890625 143.964844 136.882812 144 C 136.847656 144.152344 136.796875 144.292969 136.746094 144.441406 C 136.738281 144.457031 136.738281 144.46875 136.734375 144.476562 C 136.148438 146.019531 134.777344 147.175781 133.109375 147.46875 C 133.082031 147.472656 133.054688 147.472656 133.03125 147.480469 C 132.789062 147.515625 132.546875 147.546875 132.296875 147.546875 L 79.316406 147.546875 L 79.316406 171.535156 C 79.316406 173.738281 77.507812 175.539062 75.296875 175.539062 C 73.085938 175.539062 71.273438 173.738281 71.273438 171.535156 L 71.273438 147.550781 L 67.980469 147.550781 L 67.980469 154.417969 C 67.980469 156.421875 66.332031 158.0625 64.320312 158.0625 C 62.3125 158.0625 60.664062 156.421875 60.664062 154.417969 L 60.664062 147.550781 L 51.808594 147.550781 C 50.660156 147.550781 49.609375 147.148438 48.792969 146.472656 C 48.675781 146.375 48.5625 146.273438 48.457031 146.167969 C 48.304688 146.019531 48.164062 145.847656 48.035156 145.675781 C 47.929688 145.535156 47.820312 145.386719 47.730469 145.230469 C 47.664062 145.117188 47.601562 145.003906 47.542969 144.882812 C 47.238281 144.257812 47.066406 143.5625 47.066406 142.828125 L 47.066406 118.632812 C 47.066406 116.027344 49.191406 113.910156 51.808594 113.910156 L 132.28125 113.910156 C 132.53125 113.910156 132.773438 113.9375 133.011719 113.976562 C 133.039062 113.980469 133.066406 113.980469 133.097656 113.988281 C 134.765625 114.28125 136.132812 115.4375 136.71875 116.980469 C 136.726562 116.992188 136.726562 117.007812 136.734375 117.015625 C 136.78125 117.15625 136.832031 117.304688 136.867188 117.453125 C 136.875 117.488281 136.890625 117.53125 136.898438 117.566406 C 136.925781 117.695312 136.953125 117.832031 136.96875 117.964844 C 136.976562 118.007812 136.980469 118.058594 136.988281 118.101562 C 137.011719 118.269531 137.019531 118.449219 137.023438 118.625 C 137.023438 118.625 137.023438 118.632812 137.023438 118.632812 L 137.023438 119.195312 L 139.449219 119.527344 C 141.71875 119.839844 143.414062 121.773438 143.414062 124.058594 L 143.414062 127.054688 L 147.199219 127.054688 C 152.253906 127.054688 156.371094 131.148438 156.371094 136.183594 Z M 129.921875 120.804688 C 129.972656 120.804688 130.023438 120.800781 130.066406 120.785156 C 130.109375 120.769531 130.15625 120.757812 130.199219 120.75 C 130.40625 120.714844 130.605469 120.644531 130.785156 120.542969 C 131.320312 120.246094 131.691406 119.691406 131.691406 119.039062 C 131.691406 118.824219 131.640625 118.632812 131.570312 118.441406 C 131.476562 118.1875 131.328125 117.957031 131.140625 117.773438 C 130.828125 117.460938 130.402344 117.269531 129.921875 117.269531 L 54.964844 117.269531 C 54.480469 117.269531 54.039062 117.46875 53.710938 117.789062 C 53.382812 118.109375 53.191406 118.5625 53.191406 119.046875 C 53.191406 119.648438 53.503906 120.1875 53.976562 120.507812 C 54.261719 120.699219 54.59375 120.8125 54.964844 120.8125 L 129.921875 120.8125 Z M 98.648438 252.816406 C 98.648438 251.480469 97.5625 250.402344 96.222656 250.402344 C 94.882812 250.402344 93.800781 251.480469 93.800781 252.816406 C 93.800781 254.152344 94.882812 255.230469 96.222656 255.230469 C 97.5625 255.230469 98.648438 254.152344 98.648438 252.816406 Z M 63.765625 161.707031 C 62.046875 161.707031 60.65625 163.089844 60.65625 164.804688 C 60.65625 166.515625 62.046875 167.898438 63.765625 167.898438 C 65.484375 167.898438 66.875 166.515625 66.875 164.804688 C 66.875 163.089844 65.484375 161.707031 63.765625 161.707031 Z M 63.765625 161.707031 " fill-opacity="1" fill-rule="nonzero"/></g></svg>