<svg width="282" height="149" viewBox="0 0 282 149" fill="none" xmlns="http://www.w3.org/2000/svg">
<path d="M198.363 10.207C203.367 10.207 207.738 8.53516 210.168 6.03906H243.453C264.164 6.03906 281.109 22.9805 281.109 43.6875C281.109 44.832 279.535 45.1211 279.07 44.0781C273.348 31.2891 260.492 22.3242 245.641 22.3242H236.043C232.992 22.3242 230.473 24.7148 230.32 27.7656L229.637 41.2188H226.34V140.672C226.34 144.801 222.992 148.148 218.863 148.148H218.363C214.234 148.148 210.887 144.801 210.887 140.672V41.2188H208.379L207.598 25.793C207.465 23.1758 205.633 20.9219 203.074 20.3359C201.605 19.9961 200.019 19.8125 198.359 19.8125C194.562 19.8125 191.129 20.7695 188.629 22.3242H180.586V6.03906H186.555C188.984 8.53516 193.355 10.207 198.363 10.207ZM218.617 139.43C220.324 139.43 221.715 138.043 221.715 136.332C221.715 134.621 220.324 133.234 218.617 133.234C216.906 133.234 215.516 134.621 215.516 136.332C215.516 138.043 216.906 139.43 218.617 139.43ZM121.73 15.7656C124.559 7.35938 131.871 1.75 140.105 0.644531L133.801 19.4023C133.043 21.668 134.258 24.1172 136.523 24.8789L147.121 28.4375C149.387 29.1992 151.836 27.9805 152.598 25.7188L158.902 6.96094C164.797 12.8125 167.238 21.6992 164.41 30.1094C162.422 36.0273 158.203 40.5703 153.008 43.1289C147.937 45.6211 144.723 50.7695 144.894 56.4141L147.762 138.254C147.922 143.422 143.965 148.016 138.797 148.137C133.492 148.266 129.195 143.918 129.359 138.645L132.422 50.3867C132.551 46.2773 130.906 42.2969 127.871 39.5195C121.516 33.6953 118.805 24.4727 121.73 15.7656ZM138.57 136.992C140.508 136.992 142.078 135.418 142.078 133.48C142.078 131.539 140.508 129.973 138.57 129.973C136.629 129.973 135.059 131.543 135.059 133.48C135.059 135.422 136.633 136.992 138.57 136.992Z" fill="#1A202C"/>
<path d="M28.2266 72.0586C29.0859 75.3828 33.4805 77.1719 33.4805 81.4609C33.4805 84.3516 31.125 86.7031 28.2266 86.707H28.1953C25.293 86.7031 22.9414 84.3516 22.9414 81.4609C22.9414 77.1719 27.332 75.375 28.1953 72.0586C28.1953 72.043 28.2031 72.0352 28.2031 72.0273C28.2188 72.0352 28.2188 72.0508 28.2266 72.0586ZM109.621 23.1836V36.5117C109.621 40.0781 107.91 43.4883 105.051 45.6328L55.1562 77.3984C53.0547 78.9687 51.7969 81.4687 51.7969 84.0859V93.875H54.1094C56.1133 93.875 57.7305 95.4883 57.7305 97.4805V144.27C57.7305 146.258 56.1133 147.875 54.1094 147.875H44.8398C42.8359 147.875 41.2148 146.258 41.2148 144.27V97.4805C41.2148 95.4844 42.8359 93.875 44.8398 93.875H46.8516V84.0859C46.8516 79.9258 48.8477 75.9492 52.1836 73.4492L102.074 41.6836C103.703 40.4687 104.672 38.5352 104.672 36.5117V23.1836C104.672 20.8672 102.781 18.9844 100.457 18.9844H96.6719V24.4023C96.6719 25.1641 96.4727 25.8789 96.1289 26.5195C96.0352 26.6992 95.9297 26.8672 95.8164 27.0312C95.5742 27.3789 95.2891 27.6992 94.9609 27.9609C94.5391 28.2969 94.0547 28.5664 93.5352 28.7344C93.2695 28.8203 92.9922 28.8867 92.7148 28.9258L90.2891 29.2617V29.8242V29.8281C90.2891 30.0078 90.2734 30.1836 90.2539 30.3555C90.2461 30.4062 90.2383 30.4492 90.2305 30.4883C90.2109 30.625 90.1875 30.7617 90.1602 30.8867C90.1523 30.9219 90.1406 30.9648 90.1328 31C90.0977 31.1523 90.0469 31.293 89.9961 31.4414C89.9883 31.457 89.9883 31.4688 89.9844 31.4766C89.3984 33.0195 88.0273 34.1758 86.3594 34.4688C86.332 34.4727 86.3047 34.4727 86.2812 34.4805C86.0391 34.5156 85.7969 34.5469 85.5469 34.5469H32.5664V58.5352C32.5664 60.7383 30.7578 62.5391 28.5469 62.5391C26.3359 62.5391 24.5234 60.7383 24.5234 58.5352V34.5508H21.2305V41.418C21.2305 43.4219 19.582 45.0625 17.5703 45.0625C15.5625 45.0625 13.9141 43.4219 13.9141 41.418V34.5508H5.05859C3.91016 34.5508 2.85937 34.1484 2.04297 33.4727C1.92578 33.375 1.8125 33.2734 1.70703 33.168C1.55469 33.0195 1.41406 32.8477 1.28516 32.6758C1.17969 32.5352 1.07031 32.3867 0.980469 32.2305C0.914062 32.1172 0.851562 32.0039 0.792969 31.8828C0.488281 31.2578 0.316406 30.5625 0.316406 29.8281V5.63281C0.316406 3.02734 2.44141 0.910156 5.05859 0.910156H85.5312C85.7812 0.910156 86.0234 0.9375 86.2617 0.972656C86.2891 0.980469 86.3164 0.980469 86.3477 0.988281C88.0156 1.28125 89.3828 2.4375 89.9688 3.98047C89.9766 3.99219 89.9766 4.00781 89.9844 4.01562C90.0312 4.15625 90.082 4.30469 90.1172 4.45312C90.125 4.48828 90.1406 4.53125 90.1484 4.56641C90.1758 4.69531 90.2031 4.83203 90.2188 4.96484C90.2266 5.00781 90.2305 5.05859 90.2383 5.10156C90.2617 5.26953 90.2695 5.44922 90.2734 5.625V5.63281V6.19531L92.6992 6.52734C94.9687 6.83984 96.6641 8.77344 96.6641 11.0586V14.0547H100.449C105.504 14.0547 109.621 18.1484 109.621 23.1836ZM83.1719 7.80469C83.2227 7.80469 83.2734 7.80078 83.3164 7.78516C83.3594 7.76953 83.4062 7.75781 83.4492 7.75C83.6562 7.71484 83.8555 7.64453 84.0352 7.54297C84.5703 7.24609 84.9414 6.69141 84.9414 6.03906C84.9414 5.82422 84.8906 5.63281 84.8203 5.44141C84.7266 5.1875 84.5781 4.95703 84.3906 4.77344C84.0781 4.46094 83.6523 4.26953 83.1719 4.26953H8.21484C7.73047 4.26953 7.28906 4.46875 6.96094 4.78906C6.63281 5.10938 6.44141 5.5625 6.44141 6.04688C6.44141 6.64844 6.75391 7.1875 7.22656 7.50781C7.51172 7.69922 7.84375 7.8125 8.21484 7.8125H83.1719V7.80469ZM51.8984 139.816C51.8984 138.48 50.8125 137.402 49.4727 137.402C48.1328 137.402 47.0508 138.48 47.0508 139.816C47.0508 141.152 48.1328 142.23 49.4727 142.23C50.8125 142.23 51.8984 141.152 51.8984 139.816ZM17.0156 48.707C15.2969 48.707 13.9062 50.0898 13.9062 51.8008C13.9062 53.5156 15.2969 54.8984 17.0156 54.8984C18.7344 54.8984 20.125 53.5156 20.125 51.8008C20.125 50.0898 18.7344 48.707 17.0156 48.707Z" fill="#1A202C"/>
</svg>
